<svg width="909" height="420" viewBox="0 0 910 420" fill="none" xmlns="http://www.w3.org/2000/svg">
<g filter="url(#filter0_f_162_10)">
<ellipse cx="250.5" cy="210" rx="35.5" ry="10" fill="#D9D9D9"/>
</g>
<rect y="129" width="909" height="210" rx="63" fill="#141434"/>
<path d="M188.545 276H164.886V206.182H189.023C195.955 206.182 201.909 207.58 206.886 210.375C211.886 213.148 215.727 217.136 218.409 222.341C221.091 227.545 222.432 233.773 222.432 241.023C222.432 248.295 221.08 254.545 218.375 259.773C215.693 265 211.818 269.011 206.75 271.807C201.705 274.602 195.636 276 188.545 276ZM177.534 265.057H187.932C192.795 265.057 196.852 264.17 200.102 262.398C203.352 260.602 205.795 257.932 207.432 254.386C209.068 250.818 209.886 246.364 209.886 241.023C209.886 235.682 209.068 231.25 207.432 227.727C205.795 224.182 203.375 221.534 200.17 219.784C196.989 218.011 193.034 217.125 188.307 217.125H177.534V265.057ZM256.744 277.023C251.631 277.023 247.199 275.898 243.449 273.648C239.699 271.398 236.79 268.25 234.722 264.205C232.676 260.159 231.653 255.432 231.653 250.023C231.653 244.614 232.676 239.875 234.722 235.807C236.79 231.739 239.699 228.58 243.449 226.33C247.199 224.08 251.631 222.955 256.744 222.955C261.858 222.955 266.29 224.08 270.04 226.33C273.79 228.58 276.688 231.739 278.733 235.807C280.801 239.875 281.835 244.614 281.835 250.023C281.835 255.432 280.801 260.159 278.733 264.205C276.688 268.25 273.79 271.398 270.04 273.648C266.29 275.898 261.858 277.023 256.744 277.023ZM256.812 267.136C259.585 267.136 261.903 266.375 263.767 264.852C265.631 263.307 267.017 261.239 267.926 258.648C268.858 256.057 269.324 253.17 269.324 249.989C269.324 246.784 268.858 243.886 267.926 241.295C267.017 238.682 265.631 236.602 263.767 235.057C261.903 233.511 259.585 232.739 256.812 232.739C253.972 232.739 251.608 233.511 249.722 235.057C247.858 236.602 246.46 238.682 245.528 241.295C244.619 243.886 244.165 246.784 244.165 249.989C244.165 253.17 244.619 256.057 245.528 258.648C246.46 261.239 247.858 263.307 249.722 264.852C251.608 266.375 253.972 267.136 256.812 267.136ZM315.151 277.023C309.923 277.023 305.435 275.875 301.685 273.58C297.957 271.284 295.082 268.114 293.06 264.068C291.06 260 290.06 255.318 290.06 250.023C290.06 244.705 291.082 240.011 293.128 235.943C295.173 231.852 298.06 228.67 301.787 226.398C305.537 224.102 309.969 222.955 315.082 222.955C319.332 222.955 323.094 223.739 326.366 225.307C329.662 226.852 332.287 229.045 334.241 231.886C336.196 234.705 337.31 238 337.582 241.773H325.787C325.31 239.25 324.173 237.148 322.378 235.466C320.605 233.761 318.23 232.909 315.253 232.909C312.73 232.909 310.514 233.591 308.605 234.955C306.696 236.295 305.207 238.227 304.139 240.75C303.094 243.273 302.571 246.295 302.571 249.818C302.571 253.386 303.094 256.455 304.139 259.023C305.185 261.568 306.651 263.534 308.537 264.92C310.446 266.284 312.685 266.966 315.253 266.966C317.071 266.966 318.696 266.625 320.128 265.943C321.582 265.239 322.798 264.227 323.776 262.909C324.753 261.591 325.423 259.989 325.787 258.102H337.582C337.287 261.807 336.196 265.091 334.31 267.955C332.423 270.795 329.855 273.023 326.605 274.636C323.355 276.227 319.537 277.023 315.151 277.023ZM381.091 253.977V223.636H393.432V276H381.466V266.693H380.92C379.739 269.625 377.795 272.023 375.091 273.886C372.409 275.75 369.102 276.682 365.17 276.682C361.739 276.682 358.705 275.92 356.068 274.398C353.455 272.852 351.409 270.614 349.932 267.682C348.455 264.727 347.716 261.159 347.716 256.977V223.636H360.057V255.068C360.057 258.386 360.966 261.023 362.784 262.977C364.602 264.932 366.989 265.909 369.943 265.909C371.761 265.909 373.523 265.466 375.227 264.58C376.932 263.693 378.33 262.375 379.42 260.625C380.534 258.852 381.091 256.636 381.091 253.977ZM406.122 276V223.636H417.918V232.534H418.531C419.622 229.534 421.429 227.193 423.952 225.511C426.474 223.807 429.486 222.955 432.986 222.955C436.531 222.955 439.52 223.818 441.952 225.545C444.406 227.25 446.134 229.58 447.134 232.534H447.679C448.838 229.625 450.793 227.307 453.543 225.58C456.315 223.83 459.599 222.955 463.395 222.955C468.213 222.955 472.145 224.477 475.19 227.523C478.236 230.568 479.759 235.011 479.759 240.852V276H467.384V242.761C467.384 239.511 466.52 237.136 464.793 235.636C463.065 234.114 460.952 233.352 458.452 233.352C455.474 233.352 453.145 234.284 451.463 236.148C449.804 237.989 448.974 240.386 448.974 243.341V276H436.872V242.25C436.872 239.545 436.054 237.386 434.418 235.773C432.804 234.159 430.69 233.352 428.077 233.352C426.304 233.352 424.69 233.807 423.236 234.716C421.781 235.602 420.622 236.864 419.759 238.5C418.895 240.114 418.463 242 418.463 244.159V276H406.122ZM515.46 277.023C510.21 277.023 505.676 275.932 501.858 273.75C498.063 271.545 495.142 268.432 493.097 264.409C491.051 260.364 490.028 255.602 490.028 250.125C490.028 244.739 491.051 240.011 493.097 235.943C495.165 231.852 498.051 228.67 501.756 226.398C505.46 224.102 509.812 222.955 514.812 222.955C518.04 222.955 521.085 223.477 523.949 224.523C526.835 225.545 529.381 227.136 531.585 229.295C533.813 231.455 535.563 234.205 536.835 237.545C538.108 240.864 538.744 244.818 538.744 249.409V253.193H495.824V244.875H526.915C526.892 242.511 526.381 240.409 525.381 238.568C524.381 236.705 522.983 235.239 521.188 234.17C519.415 233.102 517.347 232.568 514.983 232.568C512.46 232.568 510.244 233.182 508.335 234.409C506.426 235.614 504.938 237.205 503.869 239.182C502.824 241.136 502.29 243.284 502.267 245.625V252.886C502.267 255.932 502.824 258.545 503.938 260.727C505.051 262.886 506.608 264.545 508.608 265.705C510.608 266.841 512.949 267.409 515.631 267.409C517.426 267.409 519.051 267.159 520.506 266.659C521.96 266.136 523.222 265.375 524.29 264.375C525.358 263.375 526.165 262.136 526.71 260.659L538.233 261.955C537.506 265 536.119 267.659 534.074 269.932C532.051 272.182 529.46 273.932 526.301 275.182C523.142 276.409 519.528 277.023 515.46 277.023ZM561.526 245.318V276H549.185V223.636H560.98V232.534H561.594C562.798 229.602 564.719 227.273 567.355 225.545C570.014 223.818 573.298 222.955 577.207 222.955C580.821 222.955 583.969 223.727 586.651 225.273C589.355 226.818 591.446 229.057 592.923 231.989C594.423 234.92 595.162 238.477 595.139 242.659V276H582.798V244.568C582.798 241.068 581.889 238.33 580.071 236.352C578.276 234.375 575.787 233.386 572.605 233.386C570.446 233.386 568.526 233.864 566.844 234.818C565.185 235.75 563.878 237.102 562.923 238.875C561.991 240.648 561.526 242.795 561.526 245.318ZM633.832 223.636V233.182H603.73V223.636H633.832ZM611.162 211.091H623.503V260.25C623.503 261.909 623.753 263.182 624.253 264.068C624.776 264.932 625.457 265.523 626.298 265.841C627.139 266.159 628.071 266.318 629.094 266.318C629.866 266.318 630.571 266.261 631.207 266.148C631.866 266.034 632.366 265.932 632.707 265.841L634.787 275.489C634.128 275.716 633.185 275.966 631.957 276.239C630.753 276.511 629.276 276.67 627.526 276.716C624.435 276.807 621.651 276.341 619.173 275.318C616.696 274.273 614.73 272.659 613.276 270.477C611.844 268.295 611.139 265.568 611.162 262.295V211.091ZM659.222 277.057C655.903 277.057 652.915 276.466 650.256 275.284C647.619 274.08 645.528 272.307 643.983 269.966C642.46 267.625 641.699 264.739 641.699 261.307C641.699 258.352 642.244 255.909 643.335 253.977C644.426 252.045 645.915 250.5 647.801 249.341C649.688 248.182 651.813 247.307 654.176 246.716C656.563 246.102 659.028 245.659 661.574 245.386C664.642 245.068 667.131 244.784 669.04 244.534C670.949 244.261 672.335 243.852 673.199 243.307C674.085 242.739 674.528 241.864 674.528 240.682V240.477C674.528 237.909 673.767 235.92 672.244 234.511C670.722 233.102 668.528 232.398 665.665 232.398C662.642 232.398 660.244 233.057 658.472 234.375C656.722 235.693 655.54 237.25 654.926 239.045L643.403 237.409C644.313 234.227 645.813 231.568 647.903 229.432C649.994 227.273 652.551 225.659 655.574 224.591C658.597 223.5 661.938 222.955 665.597 222.955C668.119 222.955 670.631 223.25 673.131 223.841C675.631 224.432 677.915 225.409 679.983 226.773C682.051 228.114 683.71 229.943 684.96 232.261C686.233 234.58 686.869 237.477 686.869 240.955V276H675.006V268.807H674.597C673.847 270.261 672.79 271.625 671.426 272.898C670.085 274.148 668.392 275.159 666.347 275.932C664.324 276.682 661.949 277.057 659.222 277.057ZM662.426 267.989C664.903 267.989 667.051 267.5 668.869 266.523C670.688 265.523 672.085 264.205 673.062 262.568C674.062 260.932 674.562 259.148 674.562 257.216V251.045C674.176 251.364 673.517 251.659 672.585 251.932C671.676 252.205 670.653 252.443 669.517 252.648C668.381 252.852 667.256 253.034 666.142 253.193C665.028 253.352 664.063 253.489 663.244 253.602C661.403 253.852 659.756 254.261 658.301 254.83C656.847 255.398 655.699 256.193 654.858 257.216C654.017 258.216 653.597 259.511 653.597 261.102C653.597 263.375 654.426 265.091 656.085 266.25C657.744 267.409 659.858 267.989 662.426 267.989ZM725.426 223.636V233.182H695.324V223.636H725.426ZM702.756 211.091H715.097V260.25C715.097 261.909 715.347 263.182 715.847 264.068C716.369 264.932 717.051 265.523 717.892 265.841C718.733 266.159 719.665 266.318 720.688 266.318C721.46 266.318 722.165 266.261 722.801 266.148C723.46 266.034 723.96 265.932 724.301 265.841L726.381 275.489C725.722 275.716 724.778 275.966 723.551 276.239C722.347 276.511 720.869 276.67 719.119 276.716C716.028 276.807 713.244 276.341 710.767 275.318C708.29 274.273 706.324 272.659 704.869 270.477C703.438 268.295 702.733 265.568 702.756 262.295V211.091ZM735.747 276V223.636H748.088V276H735.747ZM741.952 216.205C739.997 216.205 738.315 215.557 736.906 214.261C735.497 212.943 734.793 211.364 734.793 209.523C734.793 207.659 735.497 206.08 736.906 204.784C738.315 203.466 739.997 202.807 741.952 202.807C743.929 202.807 745.611 203.466 746.997 204.784C748.406 206.08 749.111 207.659 749.111 209.523C749.111 211.364 748.406 212.943 746.997 214.261C745.611 215.557 743.929 216.205 741.952 216.205ZM783.619 277.023C778.506 277.023 774.074 275.898 770.324 273.648C766.574 271.398 763.665 268.25 761.597 264.205C759.551 260.159 758.528 255.432 758.528 250.023C758.528 244.614 759.551 239.875 761.597 235.807C763.665 231.739 766.574 228.58 770.324 226.33C774.074 224.08 778.506 222.955 783.619 222.955C788.733 222.955 793.165 224.08 796.915 226.33C800.665 228.58 803.563 231.739 805.608 235.807C807.676 239.875 808.71 244.614 808.71 250.023C808.71 255.432 807.676 260.159 805.608 264.205C803.563 268.25 800.665 271.398 796.915 273.648C793.165 275.898 788.733 277.023 783.619 277.023ZM783.688 267.136C786.46 267.136 788.778 266.375 790.642 264.852C792.506 263.307 793.892 261.239 794.801 258.648C795.733 256.057 796.199 253.17 796.199 249.989C796.199 246.784 795.733 243.886 794.801 241.295C793.892 238.682 792.506 236.602 790.642 235.057C788.778 233.511 786.46 232.739 783.688 232.739C780.847 232.739 778.483 233.511 776.597 235.057C774.733 236.602 773.335 238.682 772.403 241.295C771.494 243.886 771.04 246.784 771.04 249.989C771.04 253.17 771.494 256.057 772.403 258.648C773.335 261.239 774.733 263.307 776.597 264.852C778.483 266.375 780.847 267.136 783.688 267.136ZM831.526 245.318V276H819.185V223.636H830.98V232.534H831.594C832.798 229.602 834.719 227.273 837.355 225.545C840.014 223.818 843.298 222.955 847.207 222.955C850.821 222.955 853.969 223.727 856.651 225.273C859.355 226.818 861.446 229.057 862.923 231.989C864.423 234.92 865.162 238.477 865.139 242.659V276H852.798V244.568C852.798 241.068 851.889 238.33 850.071 236.352C848.276 234.375 845.787 233.386 842.605 233.386C840.446 233.386 838.526 233.864 836.844 234.818C835.185 235.75 833.878 237.102 832.923 238.875C831.991 240.648 831.526 242.795 831.526 245.318Z" fill="url(#paint0_linear_162_10)"/>
<path d="M111.666 239.667H91.6663M98.333 253H91.6663M118.333 226.333H91.6663M131.666 225.667V260.333C131.666 265.934 131.666 268.734 130.576 270.873C129.618 272.755 128.088 274.285 126.206 275.243C124.067 276.333 121.267 276.333 115.666 276.333H94.333C88.7325 276.333 85.9322 276.333 83.7931 275.243C81.9115 274.285 80.3817 272.755 79.4229 270.873C78.333 268.734 78.333 265.934 78.333 260.333V225.667C78.333 220.066 78.333 217.266 79.4229 215.127C80.3817 213.245 81.9115 211.715 83.7931 210.757C85.9322 209.667 88.7325 209.667 94.333 209.667H115.666C121.267 209.667 124.067 209.667 126.206 210.757C128.088 211.715 129.618 213.245 130.576 215.127C131.666 217.266 131.666 220.066 131.666 225.667Z" stroke="#7455F0" stroke-width="4" stroke-linecap="round" stroke-linejoin="round"/>
<defs>
<filter id="filter0_f_162_10" x="15" y="0" width="471" height="420" filterUnits="userSpaceOnUse" color-interpolation-filters="sRGB">
<feFlood flood-opacity="0" result="BackgroundImageFix"/>
<feBlend mode="normal" in="SourceGraphic" in2="BackgroundImageFix" result="shape"/>
<feGaussianBlur stdDeviation="100" result="effect1_foregroundBlur_162_10"/>
</filter>
<linearGradient id="paint0_linear_162_10" x1="158" y1="260.924" x2="784.182" y2="323.103" gradientUnits="userSpaceOnUse">
<stop stop-color="white"/>
<stop offset="1" stop-color="white" stop-opacity="0.52"/>
</linearGradient>
</defs>
</svg>
