<svg width="909" height="420" viewBox="0 0 909 420" fill="none" xmlns="http://www.w3.org/2000/svg">
<g opacity="0.8">
<rect y="104" width="909" height="210" rx="63" fill="#0F0F38"/>
<path d="M257.602 174.182V244H244.955V186.489H244.545L228.216 196.92V185.33L245.568 174.182H257.602ZM303.727 174.182V244H291.08V186.489H290.67L274.341 196.92V185.33L291.693 174.182H303.727ZM347.261 245.33C341.648 245.33 336.83 243.909 332.807 241.068C328.807 238.205 325.727 234.08 323.568 228.693C321.432 223.284 320.364 216.773 320.364 209.159C320.386 201.545 321.466 195.068 323.602 189.727C325.761 184.364 328.841 180.273 332.841 177.455C336.864 174.636 341.67 173.227 347.261 173.227C352.852 173.227 357.659 174.636 361.682 177.455C365.705 180.273 368.784 184.364 370.92 189.727C373.08 195.091 374.159 201.568 374.159 209.159C374.159 216.795 373.08 223.318 370.92 228.727C368.784 234.114 365.705 238.227 361.682 241.068C357.682 243.909 352.875 245.33 347.261 245.33ZM347.261 234.659C351.625 234.659 355.068 232.511 357.591 228.216C360.136 223.898 361.409 217.545 361.409 209.159C361.409 203.614 360.83 198.955 359.67 195.182C358.511 191.409 356.875 188.568 354.761 186.659C352.648 184.727 350.148 183.761 347.261 183.761C342.92 183.761 339.489 185.92 336.966 190.239C334.443 194.534 333.17 200.841 333.148 209.159C333.125 214.727 333.682 219.409 334.818 223.205C335.977 227 337.614 229.864 339.727 231.795C341.841 233.705 344.352 234.659 347.261 234.659ZM411.293 245.33C405.679 245.33 400.861 243.909 396.838 241.068C392.838 238.205 389.759 234.08 387.599 228.693C385.463 223.284 384.395 216.773 384.395 209.159C384.418 201.545 385.497 195.068 387.634 189.727C389.793 184.364 392.872 180.273 396.872 177.455C400.895 174.636 405.702 173.227 411.293 173.227C416.884 173.227 421.69 174.636 425.713 177.455C429.736 180.273 432.815 184.364 434.952 189.727C437.111 195.091 438.19 201.568 438.19 209.159C438.19 216.795 437.111 223.318 434.952 228.727C432.815 234.114 429.736 238.227 425.713 241.068C421.713 243.909 416.906 245.33 411.293 245.33ZM411.293 234.659C415.656 234.659 419.099 232.511 421.622 228.216C424.168 223.898 425.44 217.545 425.44 209.159C425.44 203.614 424.861 198.955 423.702 195.182C422.543 191.409 420.906 188.568 418.793 186.659C416.679 184.727 414.179 183.761 411.293 183.761C406.952 183.761 403.52 185.92 400.997 190.239C398.474 194.534 397.202 200.841 397.179 209.159C397.156 214.727 397.713 219.409 398.849 223.205C400.009 227 401.645 229.864 403.759 231.795C405.872 233.705 408.384 234.659 411.293 234.659ZM470.244 232.818V185.636H480.949V232.818H470.244ZM452.006 214.58V203.875H499.188V214.58H452.006ZM551.253 174.182V244H538.605V174.182H551.253ZM587.244 245.023C582.017 245.023 577.528 243.875 573.778 241.58C570.051 239.284 567.176 236.114 565.153 232.068C563.153 228 562.153 223.318 562.153 218.023C562.153 212.705 563.176 208.011 565.222 203.943C567.267 199.852 570.153 196.67 573.881 194.398C577.631 192.102 582.063 190.955 587.176 190.955C591.426 190.955 595.188 191.739 598.46 193.307C601.756 194.852 604.381 197.045 606.335 199.886C608.29 202.705 609.403 206 609.676 209.773H597.881C597.403 207.25 596.267 205.148 594.472 203.466C592.699 201.761 590.324 200.909 587.347 200.909C584.824 200.909 582.608 201.591 580.699 202.955C578.79 204.295 577.301 206.227 576.233 208.75C575.188 211.273 574.665 214.295 574.665 217.818C574.665 221.386 575.188 224.455 576.233 227.023C577.278 229.568 578.744 231.534 580.631 232.92C582.54 234.284 584.778 234.966 587.347 234.966C589.165 234.966 590.79 234.625 592.222 233.943C593.676 233.239 594.892 232.227 595.869 230.909C596.847 229.591 597.517 227.989 597.881 226.102H609.676C609.381 229.807 608.29 233.091 606.403 235.955C604.517 238.795 601.949 241.023 598.699 242.636C595.449 244.227 591.631 245.023 587.244 245.023ZM642.651 245.023C637.537 245.023 633.105 243.898 629.355 241.648C625.605 239.398 622.696 236.25 620.628 232.205C618.582 228.159 617.56 223.432 617.56 218.023C617.56 212.614 618.582 207.875 620.628 203.807C622.696 199.739 625.605 196.58 629.355 194.33C633.105 192.08 637.537 190.955 642.651 190.955C647.764 190.955 652.196 192.08 655.946 194.33C659.696 196.58 662.594 199.739 664.639 203.807C666.707 207.875 667.741 212.614 667.741 218.023C667.741 223.432 666.707 228.159 664.639 232.205C662.594 236.25 659.696 239.398 655.946 241.648C652.196 243.898 647.764 245.023 642.651 245.023ZM642.719 235.136C645.491 235.136 647.81 234.375 649.673 232.852C651.537 231.307 652.923 229.239 653.832 226.648C654.764 224.057 655.23 221.17 655.23 217.989C655.23 214.784 654.764 211.886 653.832 209.295C652.923 206.682 651.537 204.602 649.673 203.057C647.81 201.511 645.491 200.739 642.719 200.739C639.878 200.739 637.514 201.511 635.628 203.057C633.764 204.602 632.366 206.682 631.435 209.295C630.526 211.886 630.071 214.784 630.071 217.989C630.071 221.17 630.526 224.057 631.435 226.648C632.366 229.239 633.764 231.307 635.628 232.852C637.514 234.375 639.878 235.136 642.719 235.136ZM690.557 213.318V244H678.216V191.636H690.011V200.534H690.625C691.83 197.602 693.75 195.273 696.386 193.545C699.045 191.818 702.33 190.955 706.239 190.955C709.852 190.955 713 191.727 715.682 193.273C718.386 194.818 720.477 197.057 721.955 199.989C723.455 202.92 724.193 206.477 724.17 210.659V244H711.83V212.568C711.83 209.068 710.92 206.33 709.102 204.352C707.307 202.375 704.818 201.386 701.636 201.386C699.477 201.386 697.557 201.864 695.875 202.818C694.216 203.75 692.909 205.102 691.955 206.875C691.023 208.648 690.557 210.795 690.557 213.318ZM778.102 205.477L766.852 206.705C766.534 205.568 765.977 204.5 765.182 203.5C764.409 202.5 763.364 201.693 762.045 201.08C760.727 200.466 759.114 200.159 757.205 200.159C754.636 200.159 752.477 200.716 750.727 201.83C749 202.943 748.148 204.386 748.17 206.159C748.148 207.682 748.705 208.92 749.841 209.875C751 210.83 752.909 211.614 755.568 212.227L764.5 214.136C769.455 215.205 773.136 216.898 775.545 219.216C777.977 221.534 779.205 224.568 779.227 228.318C779.205 231.614 778.239 234.523 776.33 237.045C774.443 239.545 771.818 241.5 768.455 242.909C765.091 244.318 761.227 245.023 756.864 245.023C750.455 245.023 745.295 243.682 741.386 241C737.477 238.295 735.148 234.534 734.398 229.716L746.432 228.557C746.977 230.92 748.136 232.705 749.909 233.909C751.682 235.114 753.989 235.716 756.83 235.716C759.761 235.716 762.114 235.114 763.886 233.909C765.682 232.705 766.58 231.216 766.58 229.443C766.58 227.943 766 226.705 764.841 225.727C763.705 224.75 761.932 224 759.523 223.477L750.591 221.602C745.568 220.557 741.852 218.795 739.443 216.318C737.034 213.818 735.841 210.659 735.864 206.841C735.841 203.614 736.716 200.818 738.489 198.455C740.284 196.068 742.773 194.227 745.955 192.932C749.159 191.614 752.852 190.955 757.034 190.955C763.17 190.955 768 192.261 771.523 194.875C775.068 197.489 777.261 201.023 778.102 205.477Z" fill="url(#paint0_linear_158_29)"/>
<g filter="url(#filter0_f_158_29)">
<ellipse cx="258.5" cy="210" rx="35.5" ry="10" fill="#D9D9D9"/>
</g>
<path d="M155.667 207.333H152.334L147.334 217.333L140.667 197.333L135.667 207.333H132.334M143.977 186.119C137.313 178.328 126.199 176.232 117.849 183.367C109.499 190.501 108.324 202.43 114.881 210.868C119.834 217.241 133.905 230.037 140.494 235.916C141.705 236.997 142.311 237.538 143.02 237.75C143.635 237.935 144.32 237.935 144.935 237.75C145.644 237.538 146.25 236.997 147.461 235.916C154.05 230.037 168.121 217.241 173.074 210.868C179.631 202.43 178.599 190.426 170.106 183.367C161.612 176.307 150.642 178.328 143.977 186.119Z" stroke="#7455F0" stroke-width="4" stroke-linecap="round" stroke-linejoin="round"/>
</g>
<defs>
<filter id="filter0_f_158_29" x="23" y="0" width="471" height="420" filterUnits="userSpaceOnUse" color-interpolation-filters="sRGB">
<feFlood flood-opacity="0" result="BackgroundImageFix"/>
<feBlend mode="normal" in="SourceGraphic" in2="BackgroundImageFix" result="shape"/>
<feGaussianBlur stdDeviation="100" result="effect1_foregroundBlur_158_29"/>
</filter>
<linearGradient id="paint0_linear_158_29" x1="223" y1="209" x2="1351.5" y2="316" gradientUnits="userSpaceOnUse">
<stop stop-color="white"/>
<stop offset="1" stop-color="white" stop-opacity="0.49"/>
</linearGradient>
</defs>
</svg>
